<svg xmlns="http://www.w3.org/2000/svg" width="16" height="16" fill="none" viewBox="0 0 16 16">
  <path fill="#66BE7F" d="M15.034 4.298h-1.948l.68-3.028a1.038 1.038 0 0 0-.7-1.23c-.552-.162-1.123.185-1.253.761l-.786 3.497h-4.51l.68-3.028A1.037 1.037 0 0 0 6.498.04c-.552-.162-1.123.185-1.253.761l-.786 3.497H2.207c-.533 0-.966.446-.966.997 0 .55.433.996.966.996H4.01L3.24 9.71H.966c-.534 0-.966.446-.966.997 0 .55.432.996.966.996h1.827l-.681 3.028c-.12.538.188 1.078.702 1.23.551.162 1.122-.185 1.252-.762l.786-3.496h4.51l-.68 3.028a1.038 1.038 0 0 0 .7 1.23c.552.162 1.123-.185 1.253-.762l.786-3.496h2.234c.533 0 .966-.446.966-.996 0-.551-.433-.997-.966-.997H11.87l.769-3.418h2.396c.534 0 .966-.446.966-.997 0-.55-.432-.996-.966-.996ZM9.81 9.708H5.3l.769-3.417h4.51L9.81 9.71Z"/>
</svg>
