<svg xmlns="http://www.w3.org/2000/svg" width="48" height="48" fill="none" viewBox="0 0 48 48">
  <path fill="#fff" d="M48 15.642V10.03a1.406 1.406 0 0 0-1.96-1.292l-19.688 8.438c-.517.221-.852.73-.852 1.292v19.397c-1.209-.722-2.68-1.115-4.219-1.115-1.804 0-3.517.538-4.82 1.517-1.405 1.053-2.211 2.55-2.211 4.108 0 1.557.806 3.055 2.21 4.108 1.304.978 3.017 1.517 4.821 1.517 1.805 0 3.517-.539 4.821-1.517 1.405-1.053 2.21-2.55 2.21-4.108V25.02l16.875-7.232v11.64c-1.208-.723-2.68-1.116-4.218-1.116-1.805 0-3.517.539-4.821 1.517-1.405 1.053-2.21 2.55-2.21 4.108 0 1.558.805 3.055 2.21 4.108 1.304.978 3.016 1.517 4.82 1.517 1.805 0 3.518-.538 4.822-1.517 1.404-1.053 2.21-2.55 2.21-4.108V15.642ZM21.281 45.187c-2.287 0-4.218-1.288-4.218-2.812 0-1.525 1.931-2.813 4.218-2.813S25.5 40.85 25.5 42.375c0 1.524-1.932 2.812-4.219 2.812Zm7.032-23.226v-2.566l16.875-7.232v2.565L28.311 21.96ZM40.968 36.75c-2.287 0-4.219-1.288-4.219-2.813 0-1.524 1.932-2.812 4.219-2.812 2.287 0 4.218 1.288 4.218 2.812 0 1.525-1.931 2.813-4.218 2.813Zm-21.28-21.281c0 1.814-1.735 3.959-2.401 4.63a1.406 1.406 0 1 0 1.989 1.99c.33-.33 3.224-3.32 3.224-6.62 0-2.644-1.514-6.003-4.5-9.985A52.201 52.201 0 0 0 13.65.412c-.877-.878-2.4-.262-2.4.994v19.397c-1.209-.722-2.68-1.115-4.219-1.115-1.805 0-3.517.538-4.82 1.517C.805 22.258 0 23.755 0 25.313c0 1.557.806 3.055 2.21 4.108 1.304.978 3.016 1.517 4.821 1.517 1.805 0 3.517-.539 4.821-1.517 1.405-1.053 2.21-2.55 2.21-4.108V5.047c2.537 3.019 5.626 7.407 5.626 10.422ZM7.03 28.125c-2.287 0-4.218-1.288-4.218-2.812 0-1.525 1.931-2.813 4.218-2.813s4.219 1.288 4.219 2.813c0 1.524-1.932 2.812-4.219 2.812Z"/>
</svg>
