<svg xmlns="http://www.w3.org/2000/svg" width="24" height="25" fill="none" viewBox="0 0 24 25">
  <path fill="#fff" fill-rule="evenodd" d="M13.342 8.629a.764.764 0 0 0 .542.232c.232 0 .426-.077.542-.232a.748.748 0 0 0 0-1.084l-2.172-2.172a.774.774 0 0 0 .082.004c4.838 0 8.787 3.949 8.787 8.787 0 4.84-3.949 8.788-8.788 8.788-4.838 0-8.787-3.949-8.787-8.788a.776.776 0 0 0-.774-.774.776.776 0 0 0-.774.774C2 19.855 6.645 24.5 12.335 24.5c5.69 0 10.336-4.645 10.336-10.335 0-5.665-4.603-10.294-10.258-10.336l2.013-2.013a.748.748 0 0 0 0-1.084.748.748 0 0 0-1.084 0L9.935 4.14a.748.748 0 0 0 0 1.084l3.407 3.406Zm-1.777-3.952-.004.004.005.004-.001-.008Z" clip-rule="evenodd"/>
</svg>
